<?xml version="1.0" encoding="utf-8"?>

<svg viewBox="-3.8 -3.8 27.60 27.60" fill="none" xmlns="http://www.w3.org/2000/svg" stroke="#3b3f3c"
  stroke-width="2">
  <g id="SVGRepo_bgCarrier" stroke-width="0" transform="translate(0,0), scale(1)">
    <path transform="translate(-3.8, -3.8), scale(1.725)" fill="#ffc800"
      d="M9.166.33a2.25 2.25 0 00-2.332 0l-5.25 3.182A2.25 2.25 0 00.5 5.436v5.128a2.25 2.25 0 001.084 1.924l5.25 3.182a2.25 2.25 0 002.332 0l5.25-3.182a2.25 2.25 0 001.084-1.924V5.436a2.25 2.25 0 00-1.084-1.924L9.166.33z"
      strokewidth="0"></path>
  </g>
  <g id="SVGRepo_tracerCarrier" stroke-linecap="round" stroke-linejoin="round"></g>
  <g id="SVGRepo_iconCarrier">
    <path
      d="M2 4.75C2 4.33579 2.33579 4 2.75 4H17.25C17.6642 4 18 4.33579 18 4.75C18 5.16421 17.6642 5.5 17.25 5.5H2.75C2.33579 5.5 2 5.16421 2 4.75Z"
      fill="#212121"></path>
    <path
      d="M2 9.75C2 9.33579 2.33579 9 2.75 9H17.25C17.6642 9 18 9.33579 18 9.75C18 10.1642 17.6642 10.5 17.25 10.5H2.75C2.33579 10.5 2 10.1642 2 9.75Z"
      fill="#212121"></path>
    <path
      d="M2.75 14C2.33579 14 2 14.3358 2 14.75C2 15.1642 2.33579 15.5 2.75 15.5H17.25C17.6642 15.5 18 15.1642 18 14.75C18 14.3358 17.6642 14 17.25 14H2.75Z"
      fill="#212121"></path>
  </g>
</svg>